<svg id="Capa_1" enable-background="new 0 0 512 512" height="512" viewBox="0 0 512 512" width="512" xmlns="http://www.w3.org/2000/svg"><g><g><g><path d="m198.017 389h115.966v98.462h-115.966z" fill="#9facba"/><path d="m290.983 389h23v98.462h-23z" fill="#8e9dad"/><path d="m7.501 360.398v-286.633c0-18.299 14.834-33.133 33.132-33.133h430.732c18.298 0 33.132 14.834 33.132 33.133v286.633z" fill="#c5d3dd"/><path d="m471.365 40.633h-22.998c18.298 0 33.132 14.834 33.132 33.133v286.633h22.998v-286.634c.001-18.298-14.833-33.132-33.132-33.132z" fill="#abc1d1"/><path d="m471.367 360.398v-270.064c0-9.149-7.417-16.567-16.567-16.567h-397.601c-9.15 0-16.567 7.417-16.567 16.567v270.064z" fill="#6aabf0"/><path d="m454.8 73.767h-23c9.15 0 16.567 7.417 16.567 16.567v270.064h23v-270.064c0-9.15-7.417-16.567-16.567-16.567z" fill="#4596ec"/><path d="m363.966 471.368h-215.933c-4.418 0-8 3.582-8 8v17.132c0 4.418 3.582 8 8 8h215.933c4.418 0 8-3.582 8-8v-17.132c0-4.418-3.581-8-8-8z" fill="#c5d3dd"/><path d="m504.498 355.398h-496.997v16.57c0 18.298 14.834 33.133 33.132 33.133h430.732c18.299 0 33.132-14.834 33.132-33.133v-16.57z" fill="#35495e"/><path d="m481.5 355.398v16.57c0 18.298-14.834 33.133-33.133 33.133h22.998c18.299 0 33.132-14.834 33.132-33.133v-16.57z" fill="#2b3b4d"/><path d="m363.966 471.368h-23c4.418 0 8 3.582 8 8v17.132c0 4.418-3.582 8-8 8h23c4.418 0 8-3.582 8-8v-17.132c0-4.418-3.581-8-8-8z" fill="#abc1d1"/></g><g><path d="m355.434 73.767v-16.567c0-9.149-7.42-16.567-16.572-16.567h-42.853c-4.395 0-8.611-1.745-11.719-4.852l-23.436-23.429c-3.108-3.107-7.323-4.852-11.719-4.852h-109.143c-9.153 0-16.572 7.417-16.572 16.567v165.199c0 8.92 6.858 16.596 15.771 17.016l9.972.019z" fill="#fdb441"/><path d="m338.862 40.633h-23c9.153 0 16.572 7.417 16.572 16.567v31.345l23-14.778v-16.567c0-9.149-7.42-16.567-16.572-16.567z" fill="#fd9941"/><path d="m139.191 206.281c9.517.448 17.373-7.133 17.373-16.548v-132.533c0-9.149 7.42-16.567 16.573-16.567h75.998c4.395 0 8.611 1.745 11.719 4.852l23.436 23.429c3.108 3.107 7.323 4.852 11.719 4.852h75.998c9.153 0 16.572 7.417 16.572 16.567v107.683c0 4.575-3.71 8.283-8.286 8.283h-240.3z" fill="#f9ce69"/><g><path d="m372.006 73.767h-23c9.153 0 16.573 7.417 16.573 16.567v107.683c0 4.575-3.71 8.284-8.286 8.284h23c4.576 0 8.286-3.709 8.286-8.284v-107.684c0-9.149-7.42-16.566-16.573-16.566z" fill="#f9bb5f"/></g><path d="m347.434 173.167h-33.717c-4.418 0-8-3.582-8-8v-17.133c0-4.418 3.582-8 8-8h33.717c4.418 0 8 3.582 8 8v17.133c0 4.418-3.582 8-8 8z" fill="#f5f5f5"/><path d="m347.434 140.033h-23c4.418 0 8 3.582 8 8v17.133c0 4.418-3.582 8-8 8h23c4.418 0 8-3.582 8-8v-17.133c0-4.418-3.582-8-8-8z" fill="#e0e0e0"/></g><g><circle cx="255.999" cy="280.85" fill="#6ed5a1" r="82.833"/><path d="m255.999 198.017c-3.904 0-7.739.29-11.5.813 40.301 5.601 71.333 40.177 71.333 82.021 0 41.843-31.032 76.42-71.333 82.021 3.761.523 7.596.813 11.5.813 45.748 0 82.833-37.086 82.833-82.833.001-45.75-37.085-82.835-82.833-82.835z" fill="#46cc8d"/><g><path d="m244.876 317.064-35.624-30.198c-3.586-3.036-3.932-8.444-.761-11.911l11.419-12.49c2.902-3.174 7.751-3.599 11.161-.978l14.092 11.154c1.569 1.206 3.771 1.133 5.258-.172l30.45-26.751c3.416-3.001 8.613-2.688 11.643.702l11.059 12.371c3.06 3.423 2.752 8.683-.688 11.725l-52.588 46.49c-1.543 1.362-3.851 1.387-5.421.058z" fill="#f5f5f5"/></g></g></g><g><path d="m512 355.398c0-.013-.002-.026-.002-.039v-281.594c0-22.405-18.228-40.632-40.632-40.632h-175.371c-2.422 0-4.699-.943-6.411-2.655l-23.429-23.429c-4.546-4.546-10.589-7.049-17.017-7.049h-109.105c-13.27 0-24.066 10.796-24.066 24.067v9.066h-75.334c-22.405 0-40.632 18.228-40.632 40.632v298.203c0 22.405 18.228 40.632 40.632 40.632h149.883l.001 51.268h-42.484c-8.547 0-15.5 6.953-15.5 15.5v17.132c0 8.547 6.953 15.5 15.5 15.5h215.933c8.547 0 15.5-6.953 15.5-15.5v-17.132c0-8.547-6.953-15.5-15.5-15.5h-42.483v-51.268h149.882c22.405 0 40.632-18.228 40.632-40.632v-16.532c.001-.012.003-.025.003-.038zm-15.003-281.633v274.133h-18.131v-257.564c0-13.27-10.796-24.067-24.066-24.067l-91.901-.001v-9.066c0-3.207-.636-6.267-1.779-9.067h110.245c14.134 0 25.632 11.498 25.632 25.632zm-180.527 274.133c18.326-16.544 29.863-40.473 29.863-67.048 0-26.576-11.538-50.506-29.866-67.05h63.782c8.703 0 15.783-7.08 15.783-15.783v-107.683c0-3.207-.635-6.266-1.779-9.066h60.547c4.999 0 9.066 4.067 9.066 9.067v257.564h-147.396zm-177.591-134.125c.393.019 56.652.027 56.652.027-18.327 16.544-29.865 40.474-29.865 67.05s11.538 50.505 29.865 67.05l-147.399-.001v-257.565c0-4.999 4.067-9.067 9.067-9.067h58.768v107.998c-.001 13.137 10.064 23.903 22.912 24.508zm233.078-132.506c.003 0 .006.001.01.001h.01c4.995.005 9.057 4.07 9.057 9.066v9.066h-216.934v-42.2c0-5 4.067-9.067 9.066-9.067h75.972c2.421 0 4.698.943 6.411 2.656l23.428 23.429c4.545 4.545 10.589 7.049 17.018 7.049zm-207.857 108.466v-75.333h216.933v83.617c0 .432-.352.783-.783.783h-85.94c-.167 0-.33.014-.494.025-11.511-5.328-24.322-8.308-37.817-8.308s-26.306 2.98-37.817 8.308c-.164-.011-.327-.025-.494-.025h-55.38c1.165-2.859 1.792-5.939 1.792-9.067zm16.566 91.117c0-41.539 33.794-75.334 75.333-75.334s75.334 33.794 75.334 75.334c0 41.539-33.794 75.333-75.334 75.333s-75.333-33.794-75.333-75.333zm-49.7-256.783c0-5 4.067-9.067 9.066-9.067h109.105c2.421 0 4.698.943 6.411 2.656l23.428 23.429c4.545 4.545 10.589 7.049 17.018 7.049h42.838c4.999 0 9.066 4.067 9.066 9.067v9.066h-51.904c-2.422 0-4.699-.943-6.412-2.655l-23.428-23.429c-4.546-4.546-10.589-7.049-17.018-7.049h-75.972c-13.27 0-24.066 10.796-24.066 24.067v132.533c0 2.503-.998 4.833-2.81 6.561-1.81 1.727-4.184 2.61-6.705 2.495-4.752-.224-8.619-4.497-8.619-9.524v-165.199zm-90.333 24.066h75.333v18.134h-58.767c-13.271 0-24.067 10.796-24.067 24.067v257.564h-18.131v-274.133c-.001-14.134 11.498-25.632 25.632-25.632zm323.833 431.235v17.132c0 .276-.224.5-.5.5h-215.933c-.276 0-.5-.224-.5-.5v-17.132c0-.276.224-.5.5-.5h215.933c.276 0 .5.224.5.5zm-99.4-15.5h-18.133v-17.355c0-.432.352-.783.783-.783h16.567c.432 0 .783.351.783.783zm41.417 0h-26.417v-17.355c0-8.703-7.081-15.783-15.783-15.783h-16.567c-8.703 0-15.783 7.08-15.783 15.783v17.355h-26.416l-.001-51.268h100.967zm164.882-66.267h-157.363c-.007 0-.013-.001-.019-.001s-.013.001-.019.001h-115.929c-.007 0-.013-.001-.019-.001s-.013.001-.019.001h-157.364c-14.134 0-25.633-11.499-25.633-25.633v-9.07l203.235.002c11.497 5.313 24.289 8.283 37.764 8.283 13.476 0 26.27-2.971 37.768-8.285h203.23v9.07c0 14.134-11.498 25.633-25.632 25.633z"/><path d="m222.866 66.267h-33.133c-4.142 0-7.5 3.358-7.5 7.5s3.358 7.5 7.5 7.5h33.133c4.142 0 7.5-3.358 7.5-7.5s-3.358-7.5-7.5-7.5z"/><path d="m313.7 180.667h33.7c8.547 0 15.5-6.953 15.5-15.5v-17.133c0-8.547-6.953-15.5-15.5-15.5h-33.7c-8.547 0-15.5 6.953-15.5 15.5v17.133c0 8.546 6.953 15.5 15.5 15.5zm-.5-32.634c0-.276.224-.5.5-.5h33.7c.276 0 .5.224.5.5v17.133c0 .276-.224.5-.5.5h-33.7c-.276 0-.5-.224-.5-.5z"/><path d="m313.152 265.234c.248-4.224-1.169-8.288-3.99-11.443l-11.058-12.37c-5.751-6.434-15.704-7.035-22.186-1.338l-28.345 24.902-11.849-9.379c-.028-.022-.056-.044-.085-.066-6.55-5.034-15.692-4.232-21.266 1.864l-11.419 12.49c-2.922 3.195-4.379 7.335-4.103 11.656s2.248 8.242 5.549 11.037l35.624 30.198c.001.001.003.002.004.003 2.158 1.826 4.84 2.736 7.52 2.736 2.766 0 5.529-.969 7.712-2.9l52.59-46.491c3.172-2.804 5.054-6.674 5.302-10.899zm-15.235-.338-50.411 44.565-33.408-28.319c-.169-.143-.262-.327-.276-.548s.055-.416.204-.578l11.419-12.49c.155-.169.365-.257.578-.257.159 0 .319.049.458.149l14.028 11.103c.028.022.057.044.085.066 4.397 3.379 10.613 3.175 14.778-.485l30.45-26.751c.323-.283.816-.253 1.102.066l11.059 12.371c.144.161.21.352.198.568-.016.216-.104.397-.264.54z"/></g></g></svg>